<?xml version="1.0" standalone="no"?>
<!DOCTYPE svg PUBLIC "-//W3C//DTD SVG 20010904//EN"
 "http://www.w3.org/TR/2001/REC-SVG-20010904/DTD/svg10.dtd">
<svg version="1.0" xmlns="http://www.w3.org/2000/svg"
 width="1200.000000pt" height="211.000000pt" viewBox="0 0 1200.000000 211.000000"
 preserveAspectRatio="xMidYMid meet">

<g transform="translate(0.000000,211.000000) scale(0.100000,-0.100000)"
fill="#000000" stroke="none">
<path d="M24 2077 c-15 -41 -2 -51 83 -62 56 -7 88 -17 103 -30 51 -46 50 -35
50 -642 0 -455 3 -581 15 -636 51 -240 272 -388 607 -404 l117 -6 3 -106 3
-106 27 -3 c21 -3 30 2 37 20 32 83 46 108 59 108 8 0 38 -22 66 -48 103 -97
209 -141 361 -149 173 -9 306 38 417 149 110 110 155 233 145 397 -7 131 -61
247 -157 340 -22 21 -40 42 -40 45 0 4 84 5 187 4 l187 -3 64 -155 c103 -250
124 -314 112 -345 -11 -29 -62 -55 -110 -55 -45 0 -70 -17 -70 -45 l0 -25 318
2 317 3 0 29 c0 26 -5 30 -45 42 -74 22 -118 67 -167 171 -38 81 -519 1280
-537 1340 -6 18 -1 26 26 43 18 11 49 22 68 26 78 12 80 13 80 42 0 51 -4 52
-287 52 l-263 0 -6 -27 c-8 -29 14 -53 50 -53 31 -1 105 -37 112 -54 7 -18
-85 -246 -99 -246 -4 0 -28 14 -53 31 -197 135 -419 139 -612 12 -105 -70
-169 -183 -179 -318 -13 -170 70 -332 222 -430 28 -18 97 -56 155 -85 58 -29
110 -56 117 -62 8 -6 -1 -39 -34 -121 -62 -155 -76 -180 -124 -220 -45 -39
-173 -91 -210 -85 -21 3 -27 14 -50 103 -25 98 -26 100 -55 100 l-29 0 -5
-110 -5 -110 -60 3 c-79 4 -188 36 -247 74 -86 54 -147 155 -168 278 -7 44
-10 244 -8 610 3 499 4 548 21 577 24 45 69 65 162 72 71 5 80 8 83 27 6 44
-8 46 -388 52 -323 4 -360 3 -366 -11z m1617 -350 c66 -28 118 -65 154 -113
l27 -35 -93 -229 c-50 -125 -96 -234 -100 -242 -18 -27 -329 156 -381 224 -46
60 -58 94 -58 161 0 115 71 213 176 242 82 22 210 18 275 -8z m486 -366 c68
-172 122 -319 119 -327 -8 -21 -445 -20 -486 1 -17 9 -30 18 -30 22 0 14 142
363 150 368 5 3 12 -17 16 -44 7 -56 23 -76 52 -67 17 6 20 20 25 119 4 61 7
143 7 180 0 47 4 67 12 65 6 -2 67 -145 135 -317z m-301 -706 c76 -76 107
-139 112 -227 5 -88 -17 -153 -74 -217 -83 -92 -224 -135 -373 -114 -43 7
-101 22 -127 35 -49 23 -194 155 -194 177 0 8 75 11 271 11 l270 0 -3 33 c-3
28 -8 34 -49 47 -137 45 -154 116 -72 307 l35 83 72 -37 c42 -22 96 -62 132
-98z"/>
<path d="M7284 1692 c-52 -25 -85 -71 -92 -127 -6 -58 2 -86 34 -118 25 -25
58 -35 173 -53 59 -9 91 -41 91 -91 0 -106 -109 -163 -217 -113 -37 17 -43 24
-49 59 -4 23 -10 41 -15 41 -8 0 -11 -21 -13 -102 -1 -18 8 -25 39 -34 57 -18
134 -17 188 2 126 43 180 203 90 273 -13 11 -56 24 -96 31 -39 6 -87 16 -104
21 -127 40 -46 226 88 204 57 -10 89 -39 89 -82 0 -54 24 -35 30 25 5 47 4 52
-20 63 -14 6 -59 14 -100 16 -59 3 -84 0 -116 -15z"/>
<path d="M8775 1705 c-5 -2 -22 -6 -37 -9 -32 -7 -38 -26 -9 -26 27 0 86 -71
154 -185 l58 -96 -3 -102 -3 -102 -37 -9 c-68 -17 -40 -26 77 -26 112 0 150
11 81 24 -19 4 -37 14 -40 22 -3 9 -6 55 -6 103 0 87 0 87 49 166 27 44 74
114 104 155 55 74 55 75 30 78 -32 4 -35 2 -122 -145 -39 -68 -75 -123 -79
-123 -4 0 -29 42 -55 93 -80 155 -118 197 -162 182z"/>
<path d="M9880 1701 c-127 -39 -210 -165 -197 -301 15 -171 134 -271 304 -257
166 13 276 131 277 297 1 133 -66 227 -184 260 -41 11 -163 12 -200 1z m186
-43 c139 -65 166 -338 45 -441 -119 -100 -295 -29 -338 135 -36 141 6 271 102
314 47 21 138 17 191 -8z"/>
<path d="M3300 1690 c0 -5 13 -10 29 -10 16 0 33 -6 39 -12 6 -8 12 -98 14
-220 3 -190 5 -209 24 -235 36 -49 88 -68 189 -68 77 0 96 3 134 25 79 44 85
66 89 290 2 114 8 200 14 208 6 6 23 12 39 12 16 0 29 5 29 10 0 6 -38 10 -95
10 -57 0 -95 -4 -95 -10 0 -5 10 -10 23 -10 49 0 51 -6 51 -202 1 -200 -4
-223 -57 -262 -24 -17 -43 -21 -112 -21 -150 0 -168 32 -163 293 3 185 5 192
56 192 12 0 22 5 22 10 0 6 -45 10 -115 10 -70 0 -115 -4 -115 -10z"/>
<path d="M4050 1690 c0 -5 11 -10 24 -10 47 0 56 -30 56 -190 0 -80 -3 -182
-7 -227 -6 -80 -7 -82 -34 -88 -56 -13 -28 -25 56 -25 88 0 109 10 53 26 l-33
10 -3 218 -2 219 156 -189 c205 -249 235 -282 262 -289 l22 -6 0 258 c0 274 1
283 47 283 13 0 23 5 23 10 0 6 -35 10 -85 10 -83 0 -113 -12 -56 -23 27 -6
28 -9 34 -74 10 -97 9 -343 -1 -343 -8 0 -186 210 -302 357 l-65 83 -72 0
c-42 0 -73 -4 -73 -10z"/>
<path d="M4840 1690 c0 -5 10 -10 23 -10 47 0 48 -2 45 -255 l-3 -239 -32 -10
c-61 -17 -34 -26 77 -26 112 0 136 8 78 25 l-33 10 -3 239 c-3 255 -2 256 46
256 12 0 22 5 22 10 0 6 -43 10 -110 10 -67 0 -110 -4 -110 -10z"/>
<path d="M5220 1691 c0 -5 11 -12 24 -15 20 -5 38 -41 127 -266 86 -216 107
-260 122 -258 14 2 43 63 116 243 114 281 116 285 141 285 11 0 20 5 20 10 0
6 -35 10 -85 10 -89 0 -108 -9 -52 -25 43 -13 42 -19 -47 -244 l-73 -185 -72
183 c-40 100 -75 197 -78 216 -5 34 -4 35 26 35 17 0 31 5 31 10 0 6 -40 10
-100 10 -55 0 -100 -4 -100 -9z"/>
<path d="M5920 1690 c0 -5 13 -10 28 -10 51 0 52 -7 52 -249 0 -125 -4 -231
-8 -238 -4 -6 -20 -15 -35 -18 -70 -18 -13 -25 181 -23 l207 3 3 63 c3 66 -12
85 -23 30 -12 -56 -18 -58 -142 -58 l-114 0 3 113 3 112 72 3 c87 3 113 -8
113 -48 0 -17 5 -30 10 -30 6 0 10 37 10 90 0 53 -4 90 -10 90 -5 0 -10 -13
-10 -29 0 -36 -12 -41 -111 -41 l-79 0 0 58 c0 31 3 81 6 110 l7 52 77 0 c123
0 139 -6 146 -51 7 -42 24 -54 24 -16 0 12 3 39 6 60 l7 37 -212 0 c-134 0
-211 -4 -211 -10z"/>
<path d="M6530 1691 c0 -6 10 -11 23 -11 50 0 52 -6 55 -207 2 -103 1 -211 -3
-240 -6 -50 -8 -53 -41 -59 -68 -13 -32 -24 76 -24 111 0 138 9 78 26 l-33 10
0 239 0 240 71 3 c63 2 75 0 99 -20 34 -30 44 -92 21 -136 -21 -40 -63 -62
-121 -62 -25 0 -45 -3 -45 -6 0 -3 20 -29 43 -57 24 -29 74 -94 111 -144 l68
-93 54 0 c52 0 72 13 36 24 -14 5 -202 236 -202 249 0 3 24 17 54 31 97 48
123 147 55 212 l-30 29 -185 3 c-125 2 -184 0 -184 -7z"/>
<path d="M7720 1690 c0 -5 13 -10 28 -10 51 0 52 -7 52 -246 0 -122 -3 -229
-6 -238 -3 -8 -21 -18 -40 -22 -69 -13 -31 -24 81 -24 112 0 150 11 81 24 -19
4 -37 14 -40 22 -10 26 -7 431 4 458 7 20 16 26 40 26 16 0 30 5 30 10 0 6
-45 10 -115 10 -70 0 -115 -4 -115 -10z"/>
<path d="M8110 1640 c0 -46 3 -60 14 -60 10 0 16 13 18 37 3 43 19 50 106 52
l52 1 -2 -242 -3 -242 -32 -10 c-61 -17 -34 -26 77 -26 108 0 144 11 76 24
-23 5 -36 13 -40 29 -9 35 -7 441 3 456 8 12 22 13 78 5 l68 -9 3 -37 c2 -25
8 -38 18 -38 11 0 14 14 14 60 l0 60 -225 0 -225 0 0 -60z"/>
<path d="M10430 1690 c0 -5 10 -10 23 -10 47 0 48 -2 45 -255 l-3 -239 -32
-10 c-61 -17 -34 -26 77 -26 108 0 144 11 76 24 -34 7 -35 8 -41 69 -4 34 -5
87 -3 117 l3 55 45 3 c25 2 64 1 86 -3 39 -6 42 -8 48 -45 12 -73 26 -43 26
55 0 96 -12 123 -28 63 l-8 -33 -87 -3 -87 -3 0 64 c0 35 3 86 7 112 l6 47 94
-4 c102 -4 113 -10 113 -60 0 -31 14 -37 24 -12 3 9 6 36 6 60 l0 44 -195 0
c-123 0 -195 -4 -195 -10z"/>
<path d="M3480 878 c-83 -42 -116 -125 -81 -203 23 -53 52 -69 157 -85 98 -15
104 -18 120 -56 20 -47 9 -97 -28 -134 -47 -48 -127 -52 -195 -10 -27 16 -33
26 -33 55 0 24 -5 35 -15 35 -12 0 -15 -13 -15 -60 0 -56 2 -61 28 -72 15 -7
63 -12 107 -12 67 -1 87 3 125 24 64 36 101 93 102 157 0 90 -38 120 -188 143
-90 14 -114 34 -114 95 0 78 73 135 154 119 55 -10 86 -39 86 -80 0 -51 17
-41 25 16 8 60 5 66 -43 80 -64 17 -143 12 -192 -12z"/>
<path d="M4120 891 c-73 -23 -136 -75 -172 -145 -18 -32 -22 -59 -22 -126 -1
-102 25 -171 85 -225 113 -102 330 -79 429 46 49 63 64 107 65 194 0 127 -69
223 -185 255 -41 11 -163 12 -200 1z m190 -45 c135 -69 160 -338 41 -439 -88
-73 -230 -52 -297 45 -48 69 -67 194 -43 281 12 46 63 105 104 123 49 22 143
17 195 -10z"/>
<path d="M7306 737 c-38 -89 -91 -208 -117 -265 -43 -90 -51 -102 -74 -102
-16 0 -25 -6 -25 -15 0 -12 17 -15 91 -15 68 0 90 3 87 13 -3 6 -17 13 -32 15
-15 2 -29 9 -32 17 -3 7 8 43 25 79 l30 67 112 -3 111 -3 28 -70 c15 -38 26
-73 23 -77 -2 -5 -17 -8 -34 -8 -19 0 -29 -5 -29 -15 0 -12 18 -14 100 -14 79
1 100 4 100 15 0 8 -9 14 -20 14 -24 0 -31 13 -155 303 -53 125 -102 227 -109
227 -6 0 -42 -73 -80 -163z m113 -63 c23 -55 41 -103 41 -107 0 -4 -43 -7 -96
-7 -53 0 -94 4 -92 8 62 154 93 221 99 215 4 -5 25 -53 48 -109z"/>
<path d="M8682 798 c-24 -57 -76 -175 -115 -263 -66 -145 -75 -160 -100 -163
-15 -2 -27 -10 -27 -18 0 -11 19 -14 91 -14 68 0 90 3 87 13 -3 6 -19 13 -36
15 -39 4 -40 13 -5 97 l27 66 114 -3 114 -3 24 -59 c33 -80 32 -96 -6 -96 -20
0 -30 -5 -30 -15 0 -12 18 -14 100 -14 79 1 100 4 100 15 0 8 -9 14 -20 14
-24 0 -45 40 -165 323 -49 114 -93 207 -100 207 -6 0 -30 -46 -53 -102z m87
-125 c22 -56 41 -104 41 -107 0 -3 -43 -6 -96 -6 -73 0 -95 3 -91 13 40 103
93 215 98 209 3 -4 25 -53 48 -109z"/>
<path d="M9996 717 c-135 -311 -154 -347 -182 -347 -15 0 -24 -6 -24 -15 0
-12 17 -15 91 -15 68 0 90 3 87 13 -3 6 -19 13 -36 15 -39 4 -40 13 -5 97 l27
66 114 -3 114 -3 24 -59 c33 -80 32 -96 -6 -96 -20 0 -30 -5 -30 -15 0 -12 18
-14 100 -14 80 0 100 3 100 15 0 8 -8 14 -19 14 -10 0 -23 6 -28 13 -6 6 -59
126 -118 265 -60 138 -113 252 -119 252 -6 0 -47 -82 -90 -183z m122 -44 c23
-56 42 -104 42 -107 0 -3 -43 -6 -96 -6 -76 0 -95 3 -91 13 41 107 91 216 97
210 4 -4 25 -54 48 -110z"/>
<path d="M11611 713 c-122 -280 -152 -337 -180 -343 -14 -3 -26 -11 -29 -18
-3 -9 20 -12 87 -12 74 0 91 3 91 15 0 10 -10 15 -30 15 -38 0 -39 16 -6 96
l24 59 114 3 115 3 26 -68 c15 -38 27 -74 27 -80 0 -7 -14 -13 -32 -15 -17 -2
-33 -9 -35 -15 -4 -10 22 -13 101 -12 85 0 106 3 106 15 0 8 -9 14 -20 14 -28
0 -42 26 -155 294 -55 130 -105 236 -111 236 -6 0 -48 -84 -93 -187z m119 -28
c23 -55 44 -106 47 -112 4 -10 -18 -13 -91 -13 -53 0 -96 4 -96 9 0 5 16 47
36 93 20 45 40 94 45 107 5 13 11 22 13 20 2 -2 23 -49 46 -104z"/>
<path d="M4660 880 c0 -5 13 -10 29 -10 17 0 33 -6 38 -12 4 -7 10 -108 13
-225 5 -209 5 -212 30 -238 37 -40 73 -55 144 -62 114 -10 204 26 242 99 11
22 17 79 21 226 4 126 10 200 17 204 6 4 21 8 34 8 12 0 22 5 22 10 0 6 -38
10 -95 10 -57 0 -95 -4 -95 -10 0 -5 13 -10 28 -10 49 0 52 -10 52 -205 0
-205 -8 -236 -70 -268 -49 -25 -168 -20 -207 9 -49 36 -53 55 -53 254 0 200 2
210 52 210 15 0 28 5 28 10 0 6 -45 10 -115 10 -70 0 -115 -4 -115 -10z"/>
<path d="M5410 830 c0 -33 4 -60 9 -60 11 0 21 25 21 55 0 21 6 24 53 30 29 4
64 5 78 3 l24 -3 3 -220 c1 -121 0 -230 -3 -242 -4 -16 -15 -24 -40 -29 -70
-13 -33 -24 80 -24 117 0 145 9 78 26 l-38 9 -3 238 c-3 272 -9 255 91 241
l62 -9 3 -38 c5 -59 27 -40 30 26 l3 57 -226 0 -225 0 0 -60z"/>
<path d="M6020 880 c0 -5 10 -10 23 -10 50 0 52 -8 55 -187 2 -92 1 -200 -3
-240 l-7 -71 -34 -6 c-70 -14 -32 -26 81 -26 117 0 145 9 78 26 l-38 9 -3 123
-3 122 161 0 161 0 -3 -122 -3 -122 -32 -10 c-61 -17 -34 -26 77 -26 111 0
138 9 78 26 -32 9 -33 12 -41 79 -5 39 -6 146 -4 239 5 178 7 186 55 186 12 0
22 5 22 10 0 6 -43 10 -110 10 -67 0 -110 -4 -110 -10 0 -5 10 -10 23 -10 40
0 47 -18 47 -122 l0 -98 -160 0 -160 0 0 98 c0 107 6 122 52 122 15 0 28 5 28
10 0 6 -45 10 -115 10 -70 0 -115 -4 -115 -10z"/>
<path d="M7830 880 c0 -5 13 -10 30 -10 48 0 51 -18 48 -259 -3 -192 -5 -221
-20 -238 -10 -11 -18 -23 -18 -26 0 -11 378 -8 384 2 4 5 9 37 12 70 8 74 -10
84 -27 16 -6 -26 -18 -46 -28 -49 -20 -6 -130 -10 -188 -8 l-43 2 0 233 c0
251 1 257 52 257 15 0 28 5 28 10 0 6 -45 10 -115 10 -70 0 -115 -4 -115 -10z"/>
<path d="M9180 881 c0 -5 13 -11 29 -14 l29 -6 7 -126 c9 -165 -2 -362 -21
-369 -8 -3 -14 -10 -14 -16 0 -13 203 -13 251 0 46 13 96 47 123 83 16 22 21
43 21 89 0 54 -3 62 -31 88 -19 16 -50 31 -74 35 l-42 7 39 18 c54 24 83 63
83 112 0 94 -32 108 -240 108 -88 0 -160 -4 -160 -9z m295 -43 c57 -51 34
-146 -42 -167 -21 -6 -55 -11 -75 -11 l-38 0 0 100 0 100 64 0 c53 0 70 -4 91
-22z m19 -237 c48 -45 46 -142 -3 -192 -30 -29 -100 -46 -146 -35 l-25 6 0
126 0 126 74 -4 c62 -3 79 -7 100 -27z"/>
<path d="M10530 881 c0 -5 14 -11 32 -13 44 -4 46 -16 47 -244 1 -239 -1 -250
-45 -259 -65 -12 -34 -25 61 -25 95 0 125 12 61 24 -19 4 -37 14 -40 22 -3 9
-6 104 -5 212 l1 197 115 -235 116 -235 29 65 c16 36 66 143 111 239 l82 174
3 -204 c1 -112 0 -209 -2 -215 -3 -7 -18 -15 -35 -19 -63 -14 -28 -25 79 -25
108 0 144 11 76 24 -23 5 -36 13 -40 29 -10 39 -7 437 4 458 7 12 21 19 40 19
17 0 30 5 30 10 0 6 -33 10 -80 10 -44 0 -80 -4 -80 -9 0 -15 -194 -421 -201
-421 -3 0 -52 96 -107 213 l-101 212 -76 3 c-44 2 -75 -1 -75 -7z"/>
</g>
</svg>
